<svg xmlns="http://www.w3.org/2000/svg" viewBox="0 0 5.18 10.02"><defs><style>.cls-1{fill:#fff;}</style></defs><g id="Layer_2" data-name="Layer 2"><g id="Layer_1-2" data-name="Layer 1"><path class="cls-1" d="M1.54,10V5.66c0-.2,0-.2-.2-.2H.15C0,5.46,0,5.45,0,5.31V3.76c0-.11,0-.15.15-.14H1.37c.16,0,.17,0,.17-.17V2.08A2,2,0,0,1,3.31,0a2.68,2.68,0,0,1,.4,0H5c.17,0,.18,0,.18.18V1.5c0,.14,0,.16-.16.16H4.1a.65.65,0,0,0-.71.66c0,.39,0,.78,0,1.18,0,.11.07.12.16.12H5c.08,0,.11,0,.1.11l-.21,1.6c0,.1-.06.13-.15.13H3.58c-.2,0-.2,0-.2.2V10Z"/></g></g></svg>