<svg xmlns="http://www.w3.org/2000/svg" viewBox="0 0 12.35 12.35"><defs><style>.cls-1{fill:#fff;}</style></defs><g id="Layer_2" data-name="Layer 2"><g id="Layer_1-2" data-name="Layer 1"><path class="cls-1" d="M12.35,6.19c0,.92,0,1.83,0,2.75a3.2,3.2,0,0,1-.86,2.17,3.8,3.8,0,0,1-2.06,1.16,3.45,3.45,0,0,1-.72.07H3.86a4.46,4.46,0,0,1-1.4-.19A3.67,3.67,0,0,1,.53,10.66,3,3,0,0,1,0,8.92V3.52a3.22,3.22,0,0,1,.64-2A3.73,3.73,0,0,1,2.82.11a4.41,4.41,0,0,1,1-.1H8.55a3.77,3.77,0,0,1,2.27.66,3.39,3.39,0,0,1,1.49,2.27,3.4,3.4,0,0,1,0,.45C12.35,4.32,12.35,5.26,12.35,6.19ZM.92,6.16c0,.9,0,1.8,0,2.7A2.48,2.48,0,0,0,2,10.91a2.79,2.79,0,0,0,1.7.51H8.66a2.89,2.89,0,0,0,1.65-.53,2.42,2.42,0,0,0,1.12-2.16c0-1.76,0-3.51,0-5.27a2,2,0,0,0,0-.42,2.4,2.4,0,0,0-.88-1.46A2.81,2.81,0,0,0,8.59.93H3.75a2.94,2.94,0,0,0-1.83.6,2.36,2.36,0,0,0-1,1.92Z"/><path class="cls-1" d="M9.09,6A2.9,2.9,0,1,1,6.23,3.09,2.89,2.89,0,0,1,9.09,6ZM6.19,7.89A1.94,1.94,0,1,0,4.21,6,2,2,0,0,0,6.19,7.89Z"/><path class="cls-1" d="M10,2.86a.63.63,0,0,1-.62.63.64.64,0,0,1-.6-.63.63.63,0,0,1,.61-.64A.63.63,0,0,1,10,2.86Z"/></g></g></svg>