<svg xmlns="http://www.w3.org/2000/svg" viewBox="0 0 12.98 12.93"><defs><style>.cls-1{fill:#fff;}</style></defs><g id="Layer_2" data-name="Layer 2"><g id="Layer_1-2" data-name="Layer 1"><path class="cls-1" d="M0,6.33a6.49,6.49,0,0,1,13,.16A6.49,6.49,0,1,1,0,6.33Zm6.83.44V9.21h2.1a.13.13,0,0,0,.14-.1,7.45,7.45,0,0,0,.46-1.93l0-.42Zm2.73-.64c0-.23,0-.45-.06-.67A8,8,0,0,0,9.07,3.8c0-.09-.07-.11-.16-.1H6.82V6.13Zm-6.09.64,0,.44A8.24,8.24,0,0,0,4,9.11c0,.08.06.11.15.11H6.18V6.77ZM6.18,3.71H4.08C4,3.69,4,3.74,4,3.8a6.66,6.66,0,0,0-.4,1.5c-.05.27-.07.55-.1.83H6.18ZM.66,6.77c0,.2,0,.38.06.56a6,6,0,0,0,.57,1.79.15.15,0,0,0,.16.1H3.32a8.86,8.86,0,0,1-.47-2.44ZM3.32,3.7H1.4a.14.14,0,0,0-.1.08A5,5,0,0,0,.82,5.07c-.08.34-.12.7-.18,1.06H2.85A8.12,8.12,0,0,1,3.32,3.7Zm6.4,5.51h1.85s.09-.05.12-.09a5.27,5.27,0,0,0,.55-1.59c0-.25.07-.51.1-.78h-2c-.12,0-.15,0-.15.14a7,7,0,0,1-.23,1.51C9.87,8.68,9.8,8.94,9.72,9.21Zm2.61-3.08a5.91,5.91,0,0,0-.61-2.32.18.18,0,0,0-.19-.12H9.73c.11.41.23.8.3,1.21s.12.81.17,1.22ZM1.73,3.07h1.7a.22.22,0,0,0,.24-.15A7.29,7.29,0,0,1,4.91,1.09L5.2.76A5.78,5.78,0,0,0,1.73,3.07Zm0,6.77a5.86,5.86,0,0,0,3.44,2.3c-.18-.2-.36-.39-.53-.59a8.19,8.19,0,0,1-1-1.63s-.06-.07-.09-.07ZM7.84.78l.07.08A7.8,7.8,0,0,1,9.41,3a.19.19,0,0,0,.13.07h1.71A5.8,5.8,0,0,0,7.84.78Zm0,11.36a5.91,5.91,0,0,0,3.39-2.29H9.55a.16.16,0,0,0-.16.1c-.24.41-.47.83-.75,1.23A12,12,0,0,1,7.85,12.14Zm-1-2.3v2.35A7.52,7.52,0,0,0,8.74,9.84Zm0-9.13V3h1.9A7.28,7.28,0,0,0,6.83.71ZM6.18,12.16V9.84H4.29A7.32,7.32,0,0,0,6.18,12.16ZM6.18,3V.74A7.64,7.64,0,0,0,4.29,3Z"/></g></g></svg>