<svg xmlns="http://www.w3.org/2000/svg" viewBox="0 0 148.99 37"><defs><style>.cls-1{fill:#fff;}</style></defs><g id="Layer_2" data-name="Layer 2"><g id="Layer_1-2" data-name="Layer 1"><path class="cls-1" d="M59.61,11.44v4.43h3.32V11.44h4.8V24.13h-4.8V19.58H59.57v4.55H54.81V11.44ZM76.77,24.36c-4.68.1-7.38-2-7.38-6.64,0-4,2.24-6.31,6.59-6.46,4-.14,7.34,1.75,7.43,6.27C83.5,21.72,81.1,24.27,76.77,24.36Zm1.75-6.55c0-2-1-3.67-2.12-3.67s-2.12,1.64-2.12,3.67,1,3.66,2.12,3.66S78.52,19.83,78.52,17.81Zm49,6.55c-4.68.1-7.39-2-7.39-6.64,0-4,2.25-6.31,6.6-6.46,4-.14,7.34,1.75,7.43,6.27C134.25,21.72,131.85,24.27,127.52,24.36Zm1.75-6.55c0-2-1-3.67-2.12-3.67S125,15.78,125,17.81s1,3.66,2.12,3.66S129.27,19.83,129.27,17.81ZM87,24.13l5.38-.05,2-8.19,2.07,8.24h5.29l3-12.69h-4.24l-1.64,8.31-2-8.31H92.25l-2,8.31-1.62-8.31H84Zm31-.94a6.41,6.41,0,0,1-4.15.95h-7.19V11.44H115a6.13,6.13,0,0,1,1.54.13,3.12,3.12,0,0,1,1.87,4.8,3.05,3.05,0,0,1-2.2,1.21A3.17,3.17,0,0,1,118,23.19Zm-6.91-6.79,1.55,0a2.49,2.49,0,0,0,.77-.08,1.21,1.21,0,0,0,.66-.62,1.33,1.33,0,0,0-.62-1.77,2.24,2.24,0,0,0-.93-.13l-1.43,0Zm2.42,2.5a2.66,2.66,0,0,0-.8-.08h-1.62v2.74l1.66,0a2.22,2.22,0,0,0,.81-.08,1.23,1.23,0,0,0,.71-.67A1.43,1.43,0,0,0,113.51,18.9Zm24.42-1.3-4.34,6.54h5.27l2.22-4.3,2.33,4.3H149l-4.36-6.54,4-6.17h-5.08l-2,3.78-1.93-3.78h-5.54ZM41.7,20.49v3.26a20.42,20.42,0,0,0,6.86.63A5.49,5.49,0,0,0,52,22.85a3.88,3.88,0,0,0,.29-4.77,4.74,4.74,0,0,0-2.2-1.55,16.11,16.11,0,0,0-2.66-.64,2.18,2.18,0,0,1-.71-.22.66.66,0,0,1,0-1.22,1.86,1.86,0,0,1,.77-.15,19,19,0,0,1,4.56.56v-3c0-.1,0-.12-.06-.15a1,1,0,0,0-.25,0l-.49-.06a27.27,27.27,0,0,0-3.94-.27,15.81,15.81,0,0,0-1.67.12,6,6,0,0,0-2.49.78,3.74,3.74,0,0,0-.29,6,5.34,5.34,0,0,0,2.47,1,6.33,6.33,0,0,1,2,.44,1.31,1.31,0,0,1,.6.56.68.68,0,0,1-.11.77,1,1,0,0,1-.56.21A10.35,10.35,0,0,1,41.7,20.49Zm-8-6.2v0m-.26.88-.4,4.62-.16,1.85-1.08-2.1ZM19.93,30.54s-.09-.92-1.29.46l0,1.76S20,31.65,19.93,30.54ZM20,27.22s.09-1.2-1.2.28v1.66A2.36,2.36,0,0,0,20,27.22Zm5.64-8.7a.59.59,0,0,0-.18.13l-.13.18a5.14,5.14,0,0,0-.79,2.3c0,.53,0,1.07,0,1.61a2,2,0,0,0,.11.94c.05.1.13.2.24.2a.33.33,0,0,0,.23-.14,4,4,0,0,0,1-2.33c0-.63.12-1.25.11-1.88a1.9,1.9,0,0,0-.08-.82A.43.43,0,0,0,25.66,18.52ZM34,9.78l-.4,4.51v0h0L32,15.78,30.91,19.1l-.55-1.85-2,2,1.09,2.53-1.88,5.44,1.7-1.48,1.11-3.5.71,1.64,1.77-1.45-.36,4.14L16.7,37l0-.79a40.74,40.74,0,0,0,4-4A5.14,5.14,0,0,0,21.68,30c.37-3-.92-1.66-.92-1.66A7.91,7.91,0,0,0,22,25.65C22.14,23.25,21,24,21,24l-3.88,3.53v0h0l.3-6.6Zm-5.63,7.29s-.19-3.32-3.14,0c0,0-2.42,2.95-2.6,5.91s.2,3.32.2,3.32.74,1.66,3.32-1.85A11.69,11.69,0,0,0,28.33,17.07Zm4.15-9.32L24.53,3.91,22.88,9.72l-2.77-.31.56-6.27,2.95.37L16.42,0,2,8.12,15,17.72l-1.46-2.56L17,12.92l2,3.69-2.9,2,1.79,1.33ZM25,8.23a1.47,1.47,0,0,1,2.25,1.86h0a3.6,3.6,0,0,1-.43.52c-.6.63-1.16,1.28-1.73,1.93.18-.6.35-1.2.53-1.81A1.48,1.48,0,0,1,25,8.23Zm-8,1a9.36,9.36,0,0,0-.63.92,2.5,2.5,0,0,0,.06,1.66l-3.69,2A2.86,2.86,0,0,1,12,11.72a5.37,5.37,0,0,1,.37-1.24,4.22,4.22,0,0,0,.34-1.25A1.53,1.53,0,0,0,12.31,8,.92.92,0,0,0,11.12,8a1.06,1.06,0,0,0-.22,1.11,5.57,5.57,0,0,0,.54,1.06l-3.69,2a3,3,0,0,1-1.41-2.11,3.81,3.81,0,0,1,1-3A8.52,8.52,0,0,1,10,5.25a12.27,12.27,0,0,1,2.91-1.07,3.42,3.42,0,0,1,1.71,0,3.36,3.36,0,0,1,1.54,1.15,8,8,0,0,1,.61.91,3.43,3.43,0,0,1,.45,1A3.08,3.08,0,0,1,17,9.23Zm2.76,1.29,3.13.37-.55,3.32-2.95-.37ZM0,7.75l1.45,8.73,0-.06c.55-1.1,2.4.74,2.4.74l.55,2.22S3.69,18.08,3,18.27s.19,1.48.19,1.48,2.77,2.76,2.76,4.91-2.39,0-2.39,0l-.74-2.15s1.29,1.85,1.66,1.3-.19-1.3-1.11-2.22a8.2,8.2,0,0,1-1.4-2.34l1.22,7.32,12.91,9.19V21.41ZM7.38,20.11l-1.07-.43L7,22.14l-1.47-.73-2-7.2,1.29.55.92,2.77,1,.37-.64-2.77,1.48.56,2,7.75L8.12,22.7ZM15.5,28.6l-1.66-.92-1.29-4.56v3.82l-1.12-.66c.54,1.65,1.42,4.77.2,4.91-1.66.18-2.59-3-2.59-3s-.74-2.87,0-3.42,1.85.74,1.85.74L9.23,19.19l1.29.56L11.63,24l-.19-3.88,1.48.56,1.29,4.61L14,21l1.67.55Zm-4.62-.83c.18.91.12,1.69-.13,1.74s-.62-.64-.8-1.55-.13-1.69.12-1.74S10.69,26.86,10.88,27.77Z"/></g></g></svg>