<svg xmlns="http://www.w3.org/2000/svg" viewBox="0 0 824.32 101.41"><defs><style>.cls-1{fill:#fff;}</style></defs><g id="Layer_2" data-name="Layer 2"><g id="rayout"><polygon class="cls-1" points="101.83 1.47 101.83 98.84 138.39 98.84 138.39 63.88 164.11 63.88 164.11 98.84 200.98 98.84 200.98 1.47 164.11 1.47 164.11 35.44 138.63 35.44 138.63 1.47 101.83 1.47"/><path class="cls-1" d="M321.24,48.18C320.53,13.5,295.3-1,264.26.06c-33.38,1.15-50.6,19.18-50.6,49.54,0,35.39,20.77,51.72,56.62,51C303.55,99.85,321.9,80.33,321.24,48.18ZM267.46,78.41c-9,0-16.28-12.59-16.28-28.12s7.29-28.12,16.28-28.12,16.28,12.59,16.28,28.12S276.45,78.41,267.46,78.41Z"/><path class="cls-1" d="M710.52,48.18C709.81,13.5,684.58-1,653.54.06c-33.39,1.15-50.6,19.18-50.6,49.54,0,35.39,20.77,51.72,56.62,51C692.83,99.85,711.18,80.33,710.52,48.18ZM656.74,78.41c-9,0-16.28-12.59-16.28-28.12s7.29-28.12,16.28-28.12S673,34.76,673,50.29,665.73,78.41,656.74,78.41Z"/><polygon class="cls-1" points="325.73 1.47 361.19 1.47 373.62 65.17 389 1.47 424.21 1.47 439.47 65.17 452.03 1.47 484.52 1.47 461.63 98.84 421.04 98.84 405.13 35.57 389.9 98.44 348.63 98.84 325.73 1.47"/><path class="cls-1" d="M594.26,65.21a24.9,24.9,0,0,0-21.8-16.69,23.53,23.53,0,0,0,16.86-9.34c10-13.57,1.58-32.92-14.31-36.82a49.63,49.63,0,0,0-11.87-.95l-63.6.08V98.81l55.16.1c11.13,0,23.24-.3,31.86-7.35A24.92,24.92,0,0,0,594.26,65.21ZM533.58,19.94l10.94-.11c2.43,0,5,0,7.18.93,5.11,2.22,7,8.74,4.7,13.63a9.17,9.17,0,0,1-5.08,4.71,16.66,16.66,0,0,1-5.85.61l-11.89-.17ZM558,73.59a9.76,9.76,0,0,1-5.48,5.1,17.62,17.62,0,0,1-6.23.66l-12.7-.18v-21l12.4-.09a18.43,18.43,0,0,1,6.16.64C558.1,60.74,560.54,68.08,558,73.59Z"/><polygon class="cls-1" points="710.54 1.47 753.05 1.47 767.85 30.49 782.78 1.47 821.74 1.41 790.84 48.74 824.32 98.91 781.48 98.91 763.6 65.88 746.59 98.91 706.15 98.91 739.45 48.74 710.54 1.47"/><path class="cls-1" d="M1.31,70.87v25c17.3,3.81,35.07,7,52.65,4.8,9.85-1.2,20-4.37,26.64-11.73a29.46,29.46,0,0,0,7.11-15.27,29.08,29.08,0,0,0-4.9-21.29c-4.1-5.66-10.33-9.49-16.88-11.93s-13.5-3.6-20.37-4.89a16.36,16.36,0,0,1-5.49-1.72,5.7,5.7,0,0,1-3-4.64,5.6,5.6,0,0,1,3.32-4.69,14.34,14.34,0,0,1,5.89-1.16c11.77-.46,23.46,1.9,35,4.27v-23c0-.72.16-.91-.44-1.17a8.34,8.34,0,0,0-2-.27l-3.76-.49A209,209,0,0,0,45,.7a116.61,116.61,0,0,0-12.8.89c-6.68.84-13.44,2.38-19.1,6A29.05,29.05,0,0,0,0,30.23,29,29,0,0,0,10.81,54C16.19,58.25,23,60.45,29.75,61.5c5.18.8,10.6,1,15.27,3.4a9.74,9.74,0,0,1,4.59,4.3,5.2,5.2,0,0,1-.85,5.92,7.83,7.83,0,0,1-4.27,1.57A79.43,79.43,0,0,1,1.31,70.87Z"/></g></g></svg>