<svg xmlns="http://www.w3.org/2000/svg" viewBox="0 0 350 350"><defs><style>.cls-1{fill:#1a1a1a;}.cls-2{fill:#fff;}</style></defs><g id="Layer_2" data-name="Layer 2"><g id="Layer_3" data-name="Layer 3"><circle class="cls-1" cx="175" cy="175" r="175"/><polygon class="cls-2" points="71.48 161.91 71.48 187.8 81.2 187.8 81.2 178.5 88.04 178.5 88.04 187.8 97.84 187.8 97.84 161.91 88.04 161.91 88.04 170.94 81.27 170.94 81.27 161.91 71.48 161.91"/><path class="cls-2" d="M129.82,174.33c-.18-9.22-6.9-13.08-15.15-12.8-8.88.31-13.45,5.1-13.45,13.18,0,9.41,5.52,13.75,15,13.55C125.12,188.07,130,182.88,129.82,174.33Zm-14.3,8c-2.39,0-4.33-3.35-4.33-7.48s1.94-7.48,4.33-7.48,4.33,3.35,4.33,7.48S117.91,182.37,115.52,182.37Z"/><path class="cls-2" d="M233.34,174.33c-.19-9.22-6.9-13.08-15.15-12.8-8.88.31-13.46,5.1-13.46,13.18,0,9.41,5.52,13.75,15.06,13.55C228.63,188.07,233.51,182.88,233.34,174.33Zm-14.3,8c-2.39,0-4.33-3.35-4.33-7.48s1.94-7.48,4.33-7.48,4.33,3.35,4.33,7.48S221.43,182.37,219,182.37Z"/><polygon class="cls-2" points="131.02 161.91 140.44 161.91 143.75 178.85 147.84 161.91 157.2 161.91 161.26 178.85 164.6 161.91 173.24 161.91 167.15 187.8 156.36 187.8 152.13 170.97 148.08 187.69 137.11 187.8 131.02 161.91"/><path class="cls-2" d="M202.42,178.86a6.6,6.6,0,0,0-5.79-4.44,6.28,6.28,0,0,0,4.48-2.49c2.66-3.6.42-8.75-3.81-9.79a13.23,13.23,0,0,0-3.15-.25l-16.91,0v25.88l14.66,0c3,0,6.18-.08,8.47-2A6.59,6.59,0,0,0,202.42,178.86Zm-16.13-12,2.91,0a4.58,4.58,0,0,1,1.91.25,2.74,2.74,0,0,1,1.25,3.62,2.42,2.42,0,0,1-1.36,1.25,4.48,4.48,0,0,1-1.55.17l-3.16-.05Zm6.49,14.26a2.63,2.63,0,0,1-1.46,1.36,4.85,4.85,0,0,1-1.66.18l-3.37-.05V177l3.3,0a4.7,4.7,0,0,1,1.63.17A2.91,2.91,0,0,1,192.78,181.08Z"/><polygon class="cls-2" points="233.34 161.91 244.65 161.91 248.58 169.62 252.55 161.91 262.91 161.89 254.7 174.48 263.6 187.82 252.21 187.82 247.45 179.03 242.93 187.82 232.18 187.82 241.03 174.48 233.34 161.91"/><path class="cls-2" d="M44.75,180.36V187c4.6,1,9.33,1.85,14,1.28,2.62-.32,5.32-1.17,7.09-3.12a7.94,7.94,0,0,0,1.89-4.06,7.78,7.78,0,0,0-1.3-5.67,9.65,9.65,0,0,0-4.5-3.17,34.11,34.11,0,0,0-5.41-1.3,4.35,4.35,0,0,1-1.46-.45,1.55,1.55,0,0,1-.8-1.24,1.51,1.51,0,0,1,.89-1.25,3.94,3.94,0,0,1,1.56-.3A38.63,38.63,0,0,1,66,168.87v-6.11c0-.19,0-.24-.12-.31a2.18,2.18,0,0,0-.52-.07l-1-.14a55.27,55.27,0,0,0-8-.54,32.37,32.37,0,0,0-3.4.24,12,12,0,0,0-5.08,1.6,7.6,7.6,0,0,0-.6,12.33,10.69,10.69,0,0,0,5,2,12.9,12.9,0,0,1,4.06.91,2.51,2.51,0,0,1,1.22,1.14,1.39,1.39,0,0,1-.22,1.57,2.09,2.09,0,0,1-1.14.42A21.12,21.12,0,0,1,44.75,180.36Z"/></g></g></svg>