<svg xmlns="http://www.w3.org/2000/svg" xmlns:xlink="http://www.w3.org/1999/xlink" viewBox="0 0 181.8 198.69"><defs><style>.cls-1{fill:url(#linear-gradient);}.cls-2{fill:url(#linear-gradient-2);}.cls-3{fill:url(#linear-gradient-3);}</style><linearGradient id="linear-gradient" x1="70.97" y1="150.19" x2="200.25" y2="101.02" gradientUnits="userSpaceOnUse"><stop offset="0.28" stop-color="#e6561a"/><stop offset="0.92" stop-color="#f7c200"/></linearGradient><linearGradient id="linear-gradient-2" x1="80.19" y1="102" x2="106.17" y2="-24.54" gradientUnits="userSpaceOnUse"><stop offset="0.1" stop-color="#e6561a"/><stop offset="0.21" stop-color="#e75919"/><stop offset="0.31" stop-color="#e86417"/><stop offset="0.4" stop-color="#eb7612"/><stop offset="0.49" stop-color="#ef8f0c"/><stop offset="0.58" stop-color="#f4af05"/><stop offset="0.62" stop-color="#f7c200"/></linearGradient><linearGradient id="linear-gradient-3" x1="78.99" y1="118.24" x2="13.51" y2="115.67" gradientUnits="userSpaceOnUse"><stop offset="0" stop-color="#e6561a"/><stop offset="0.16" stop-color="#e75d18"/><stop offset="0.39" stop-color="#ea7113"/><stop offset="0.67" stop-color="#ef920c"/><stop offset="0.98" stop-color="#f6be01"/><stop offset="1" stop-color="#f7c200"/></linearGradient></defs><g id="Layer_2" data-name="Layer 2"><g id="Layer_1-2" data-name="Layer 1"><path class="cls-1" d="M179.22,81.56l-2.14,24.81-.87,9.95L170.44,105ZM106.71,164s-.49-5-6.92,2.47l-.1,9.42S107.2,170,106.71,164Zm.49-17.84s.5-6.44-6.42,1.48v8.92S107.7,152.61,107.2,146.17Zm30.16-46.71a2.75,2.75,0,0,0-.93.7,7.13,7.13,0,0,0-.73,1,27.56,27.56,0,0,0-4.19,12.33c-.26,2.87-.06,5.76-.09,8.64a11.34,11.34,0,0,0,.63,5.06c.26.52.7,1,1.28,1a1.78,1.78,0,0,0,1.2-.75c3-3.45,5.28-8.06,5.44-12.5.12-3.37.62-6.72.57-10.08,0-1.32.27-3.21-.4-4.39A2.29,2.29,0,0,0,137.36,99.46ZM181.8,52.52l-2.12,24.22-.05.08v0l-8.2,7.93-5.93,17.84-3-9.91-10.77,10.7,5.83,13.57-10.07,29.24,9.09-7.93,5.92-18.83,3.83,8.8,9.49-7.79L173.9,142.7l-84.48,56,.19-4.23c7-5,21.55-21.54,21.55-21.54,4-4.95,4.94-11.89,4.94-11.89,2-15.85-4.94-8.92-4.94-8.92a41.73,41.73,0,0,0,6.42-14.37c1-12.88-4.94-8.91-4.94-8.91L91.89,147.76V148h-.14l1.63-35.47ZM151.67,91.66s-1-17.83-16.8,0c0,0-12.94,15.86-13.93,31.72S122,141.21,122,141.21s4,8.92,17.79-9.91A63.12,63.12,0,0,0,151.67,91.66Z"/><path class="cls-2" d="M173.9,41.62,131.35,21l-8.83,31.16L107.7,50.54l3-33.69,15.81,2L87.94,0,10.87,43.6,80,95.13l-7.82-13.7L90.9,69.37l10.87,19.82L86.27,99.88,95.84,107Zm-40,2.6a7.89,7.89,0,0,1,12.07,10l0,.06a17.45,17.45,0,0,1-2.34,2.81c-3.19,3.36-6.22,6.85-9.25,10.35l2.85-9.71A7.94,7.94,0,0,1,134,44.22Zm-43,5.33c-1,1.74-2.56,3.13-3.36,5-1.22,2.78-.46,6,.35,8.91L68.18,74.33a15.26,15.26,0,0,1-3.8-11.39,27.19,27.19,0,0,1,2-6.67,22,22,0,0,0,1.78-6.71A8,8,0,0,0,65.9,43.2c-1.72-1.57-4.61-1.91-6.35-.37s-1.81,3.91-1.19,6a32,32,0,0,0,2.89,5.72L41.49,65.41A16,16,0,0,1,34,54.1c-.82-5.71,1.6-11.54,5.38-15.89s8.82-7.4,14-10a63.62,63.62,0,0,1,15.57-5.78,18.53,18.53,0,0,1,9.15,0c3.32,1,6,3.48,8.22,6.19a35.31,35.31,0,0,1,3.3,4.84A20.4,20.4,0,0,1,92,38.64C92.69,42,92.68,46.48,90.94,49.55Zm14.78,6.94,16.8,2-3,17.83-15.8-2Z"/><path class="cls-3" d="M0,41.62,7.79,88.48c0-.1.07-.19.11-.28,3-6,12.85,4,12.85,4l3,11.89s-3.95-6.93-7.9-5.94,1,7.92,1,7.92,14.82,14.87,14.77,26.42-12.8,0-12.8,0L14.82,120.9s6.92,9.91,8.89,6.94-1-6.94-5.93-11.9c-2.33-2.34-5.32-7.33-7.52-12.57L16.8,142.7,86,192V115ZM39.52,108l-5.73-2.33,3.76,13.23-7.91-4L18.77,76.3l6.92,3,4.94,14.86,5.39,2L32.61,81.26l7.9,3,10.87,41.62-7.91-4ZM83,153.6l-8.9-4.95-6.91-24.48v20.51l-6-3.56c2.93,8.85,7.6,25.63,1.07,26.35-8.9,1-13.84-16.28-13.84-16.28s-3.95-15.43,0-18.4,9.88,4,9.88,4L49.4,103.06l6.92,3,5.93,22.8-1-20.81,7.9,3,6.92,24.77-1-22.79,8.89,3Zm-24.77-4.47c1,4.89.69,9.08-.68,9.36s-3.3-3.45-4.29-8.34-.69-9.07.68-9.35S57.24,144.25,58.23,149.13Z"/></g></g></svg>