<svg xmlns="http://www.w3.org/2000/svg" xmlns:xlink="http://www.w3.org/1999/xlink" viewBox="0 0 807.39 200.5"><defs><style>.cls-1{fill:url(#linear-gradient);}.cls-2{fill:url(#linear-gradient-2);}.cls-3{fill:url(#linear-gradient-3);}</style><linearGradient id="linear-gradient" x1="71.9" y1="151.61" x2="202.6" y2="101.89" gradientUnits="userSpaceOnUse"><stop offset="0.28" stop-color="#e6561a"/><stop offset="0.92" stop-color="#f7c200"/></linearGradient><linearGradient id="linear-gradient-2" x1="81.19" y1="102.93" x2="107.41" y2="-24.76" gradientUnits="userSpaceOnUse"><stop offset="0.1" stop-color="#e6561a"/><stop offset="0.21" stop-color="#e75919"/><stop offset="0.31" stop-color="#e86417"/><stop offset="0.4" stop-color="#eb7612"/><stop offset="0.49" stop-color="#ef8f0c"/><stop offset="0.58" stop-color="#f4af05"/><stop offset="0.62" stop-color="#f7c200"/></linearGradient><linearGradient id="linear-gradient-3" x1="79.94" y1="119.33" x2="13.68" y2="116.72" gradientUnits="userSpaceOnUse"><stop offset="0" stop-color="#e6561a"/><stop offset="0.16" stop-color="#e75d18"/><stop offset="0.39" stop-color="#ea7113"/><stop offset="0.67" stop-color="#ef920c"/><stop offset="0.98" stop-color="#f6be01"/><stop offset="1" stop-color="#f7c200"/></linearGradient></defs><g id="Layer_2" data-name="Layer 2"><g id="rayout"><path d="M323,66V90h18V66h26v68.78H341V110.09H322.83v24.69H297V66Zm93,70c-25.32.54-40-11-40-36,0-21.45,12.16-34.19,35.75-35,21.92-.76,39.75,9.5,40.25,34C452.46,121.71,439.5,135.5,416,136Zm9.51-35.51c0-11-5.15-19.86-11.5-19.86s-11.5,8.89-11.5,19.86,5.14,19.86,11.5,19.86S425.51,111.46,425.51,100.49ZM691,136c-25.32.54-40-11-40-36,0-21.45,12.16-34.19,35.75-35,21.92-.76,39.75,9.5,40.25,34C727.46,121.71,714.5,135.5,691,136Zm9.51-35.51c0-11-5.15-19.86-11.5-19.86s-11.5,8.89-11.5,19.86,5.14,19.86,11.5,19.86S700.51,111.46,700.51,100.49ZM471.35,134.78l29.15-.28,10.76-44.41,11.24,44.69h28.67L567.35,66h-23l-8.87,45L524.74,66H499.87L489,111l-8.78-45H455.17Zm168.08-5.13c-6.09,5-14.64,5.19-22.51,5.18l-39-.06V66L622.88,66a35.15,35.15,0,0,1,8.39.67c11.23,2.75,17.19,16.43,10.11,26a16.62,16.62,0,0,1-11.91,6.59,17.16,17.16,0,0,1,10,30.42ZM602,92.89l8.4.12a11.69,11.69,0,0,0,4.13-.43,6.41,6.41,0,0,0,3.59-3.33c1.63-3.45.29-8-3.32-9.62a12.35,12.35,0,0,0-5.07-.66l-7.73.08Zm13.12,13.55a13,13,0,0,0-4.35-.46L602,106v14.85l9,.12a12.32,12.32,0,0,0,4.41-.46,6.92,6.92,0,0,0,3.87-3.61C621.05,113.06,619.32,107.87,615.12,106.44Zm132.31-7-23.52,35.43h28.57l12-23.33,12.63,23.33h30.26L783.74,99.4,805.57,66,778,66,767.5,86.5,757,66H727ZM226,115v17.69c12.22,2.69,24.77,4.91,37.19,3.39,7-.85,14.12-3.09,18.82-8.29A21.06,21.06,0,0,0,283.57,102c-2.89-4-7.3-6.7-11.92-8.42a87.18,87.18,0,0,0-14.39-3.46,11.79,11.79,0,0,1-3.88-1.21,3.56,3.56,0,0,1,.23-6.6,10.16,10.16,0,0,1,4.16-.81c8.32-.33,16.57,1.34,24.73,3V68.26c0-.51.11-.64-.31-.82a5.28,5.28,0,0,0-1.38-.19l-2.66-.35a147.77,147.77,0,0,0-21.33-1.45,85.44,85.44,0,0,0-9,.63c-4.72.59-9.5,1.68-13.5,4.27a20.17,20.17,0,0,0-1.58,32.74c3.8,3,8.58,4.57,13.38,5.31,3.66.57,7.49.73,10.79,2.41a7,7,0,0,1,3.24,3,3.68,3.68,0,0,1-.6,4.19,5.58,5.58,0,0,1-3,1.11A56.17,56.17,0,0,1,226,115Z"/><path class="cls-1" d="M181.38,82.31l-2.16,25-.88,10L172.5,106ZM108,165.5s-.5-5-7,2.5l-.1,9.5S108.5,171.5,108,165.5Zm.5-18s.5-6.5-6.5,1.5v9S109,154,108.5,147.5ZM139,100.37a2.66,2.66,0,0,0-.94.7,7,7,0,0,0-.73,1,27.83,27.83,0,0,0-4.25,12.44c-.26,2.9-.06,5.81-.09,8.72a11.41,11.41,0,0,0,.64,5.11,1.62,1.62,0,0,0,1.29,1.06,1.84,1.84,0,0,0,1.22-.76c3.07-3.48,5.34-8.13,5.5-12.61.13-3.4.63-6.78.58-10.18,0-1.33.27-3.23-.41-4.43A2.33,2.33,0,0,0,139,100.37ZM184,53l-2.15,24.44,0,.08v0l-8.3,8-6,18-3-10-10.9,10.8,5.9,13.7-10.2,29.5,9.2-8,6-19,3.87,8.88,9.61-7.86L176,144,90.5,200.5l.2-4.27c7-5.08,21.8-21.73,21.8-21.73,4-5,5-12,5-12,2-16-5-9-5-9A42.12,42.12,0,0,0,119,139c1-13-5-9-5-9L93,149.11v.19h-.14l1.65-35.8ZM153.5,92.5s-1-18-17,0c0,0-13.1,16-14.1,32s1.1,18,1.1,18,4,9,18-10A63.52,63.52,0,0,0,153.5,92.5Z"/><path class="cls-2" d="M176,42,132.94,21.21,124,52.65,109,51l3-34,16,2L89,0,11,44,81,96,73.09,82.17,92,70l11,20L87.31,100.79,97,108Zm-40.43,2.62a8.17,8.17,0,0,1,7.93-1.72,8.06,8.06,0,0,1,4.29,11.77l0,.07a18.24,18.24,0,0,1-2.37,2.83C142.15,61,139.08,64.49,136,68q1.44-4.89,2.89-9.8a8,8,0,0,1-3.33-13.59ZM92,50c-1,1.76-2.59,3.16-3.4,5-1.23,2.8-.46,6,.35,9L69,75a15.4,15.4,0,0,1-3.84-11.49,27.43,27.43,0,0,1,2-6.73A22.49,22.49,0,0,0,69,50a8,8,0,0,0-2.28-6.42C65,42,62,41.67,60.27,43.22s-1.83,4-1.21,6A32.19,32.19,0,0,0,62,55L42,66a16.16,16.16,0,0,1-7.64-11.42c-.83-5.76,1.62-11.65,5.45-16s8.92-7.47,14.13-10.09a64.1,64.1,0,0,1,15.75-5.84,18.73,18.73,0,0,1,9.26,0c3.37,1,6.11,3.51,8.32,6.24a35.54,35.54,0,0,1,3.35,4.89A20.56,20.56,0,0,1,93.06,39C93.82,42.4,93.8,46.91,92,50Zm15,7,17,2-3,18-16-2Z"/><path class="cls-3" d="M0,42,7.88,89.28,8,89c3-6,13,4,13,4l3,12s-4-7-8-6,1,8,1,8,15,15,15,26.65-13,0-13,0L15,122s7,10,9,7-1-7-6-12c-2.36-2.36-5.39-7.4-7.61-12.69L17,144l70,49.78V116Zm40,67-5.8-2.35L38,120l-8-4L19,77l7,3,5,15,5.46,2L33,82l8,3,11,42-8-4Zm44,46-9-5-7-24.7V146l-6.08-3.6c3,8.93,7.69,25.87,1.08,26.6-9,1-14-16.43-14-16.43S45,137,49,134s10,4,10,4l-9-34,7,3,6,23-1-21,8,3,7,25-1-23,9,3Zm-25.06-4.51c1,4.93.69,9.16-.7,9.44s-3.33-3.48-4.34-8.41-.69-9.15.7-9.44S57.93,145.56,58.94,150.49Z"/></g></g></svg>