<svg xmlns="http://www.w3.org/2000/svg" viewBox="0 0 350 350"><defs><style>.cls-1{fill:#0f1c3f;}.cls-2{fill:#fff;}</style></defs><g id="Layer_2" data-name="Layer 2"><g id="Layer_3" data-name="Layer 3"><circle class="cls-1" cx="175" cy="175" r="175"/><path class="cls-2" d="M268.71,156.13l-2.26,26.33L265.52,193l-6.12-12Zm-76.94,87.48s-.52-5.25-7.33,2.63l-.11,10S192.3,249.92,191.77,243.61Zm.53-18.92s.52-6.84-6.82,1.57v9.47S192.82,231.52,192.3,224.69Zm32-49.57a3,3,0,0,0-1,.74,7.26,7.26,0,0,0-.77,1A29.32,29.32,0,0,0,218.09,190c-.27,3-.06,6.11-.09,9.16a11.82,11.82,0,0,0,.67,5.37c.27.56.73,1.12,1.35,1.12a1.88,1.88,0,0,0,1.27-.8c3.23-3.66,5.61-8.55,5.78-13.26.13-3.58.66-7.13.6-10.7,0-1.4.29-3.4-.42-4.66A2.45,2.45,0,0,0,224.3,175.12Zm47.16-49.81L269.2,151l-.05.08v0l-8.7,8.41-6.29,18.93L251,167.9l-11.43,11.36,6.19,14.4-10.69,31,9.64-8.42,6.29-20,4.06,9.34,10.07-8.26L263.07,221l-89.64,59.42.2-4.49c7.38-5.35,22.86-22.85,22.86-22.85,4.2-5.26,5.25-12.62,5.25-12.62,2.09-16.83-5.25-9.47-5.25-9.47a44.25,44.25,0,0,0,6.82-15.24c1.05-13.67-5.24-9.47-5.24-9.47l-22,20.1v.2h-.14l1.72-37.65Zm-32,41.54s-1-18.93-17.82,0c0,0-13.74,16.83-14.79,33.65S208,219.43,208,219.43s4.19,9.46,18.87-10.52A66.92,66.92,0,0,0,239.48,166.85Z"/><path class="cls-2" d="M263.07,113.75,217.92,91.89,208.55,125l-15.73-1.74L196,87.46l16.77,2.1-40.89-20L90.08,115.85l73.39,54.68L155.17,156,175,143.19l11.53,21-16.45,11.35,10.16,7.58Zm-42.39,2.76a8.37,8.37,0,0,1,12.81,10.56l0,.07a19.68,19.68,0,0,1-2.49,3c-3.38,3.56-6.6,7.27-9.82,11l3-10.3a8.42,8.42,0,0,1-3.49-14.29Zm-45.63,5.65c-1.05,1.85-2.72,3.32-3.57,5.27-1.3,2.95-.49,6.35.37,9.45l-21,11.58a16.2,16.2,0,0,1-4-12.09,29,29,0,0,1,2.1-7.07,23.53,23.53,0,0,0,1.89-7.13,8.47,8.47,0,0,0-2.38-6.75c-1.82-1.66-4.89-2-6.73-.39s-1.92,4.15-1.27,6.33,2,4.06,3.07,6.06l-21,11.57a17,17,0,0,1-8-12c-.87-6.06,1.69-12.25,5.71-16.86s9.36-7.86,14.81-10.61a67.25,67.25,0,0,1,16.52-6.14,19.59,19.59,0,0,1,9.71,0c3.53,1.08,6.4,3.69,8.72,6.56a37.6,37.6,0,0,1,3.51,5.14,21.63,21.63,0,0,1,2.56,5.52C176.9,114.16,176.89,118.91,175.05,122.16Zm15.68,7.36,17.82,2.1-3.15,18.93-16.77-2.1Z"/><path class="cls-2" d="M78.54,113.75l8.27,49.72a2.68,2.68,0,0,1,.12-.3c3.15-6.31,13.63,4.21,13.63,4.21L103.71,180s-4.2-7.36-8.39-6.3,1.05,8.41,1.05,8.41,15.72,15.77,15.68,28-13.59,0-13.59,0l-4.19-12.25s7.34,10.52,9.44,7.36-1-7.36-6.29-12.62c-2.48-2.48-5.66-7.78-8-13.34L96.37,221l73.39,52.35V191.56Zm41.94,70.45-6.08-2.47,4,14L110,191.56l-11.54-41,7.34,3.16,5.25,15.77,5.72,2.1-3.63-15.77,8.39,3.15,11.53,44.17-8.38-4.21Zm46.13,48.37-9.43-5.26-7.34-26v21.76l-6.38-3.78c3.12,9.39,8.07,27.19,1.14,28-9.44,1.05-14.68-17.28-14.68-17.28s-4.2-16.37,0-19.52,10.48,4.21,10.48,4.21L131,178.94l7.33,3.16,6.3,24.18-1-22.08,8.38,3.16,7.34,26.28-1-24.18,9.43,3.15Zm-26.27-4.74c1,5.18.73,9.63-.73,9.93s-3.5-3.66-4.55-8.85-.73-9.62.72-9.92S139.28,222.65,140.34,227.83Z"/></g></g></svg>