<svg xmlns="http://www.w3.org/2000/svg" viewBox="0 0 139.94 106.64"><defs><style>.cls-1{fill:gray;}</style></defs><g id="Layer_2" data-name="Layer 2"><g id="Layer_1-2" data-name="Layer 1"><path class="cls-1" d="M23.53,89.67v5.77h4.33V89.67h6.26V106.2H27.86v-5.93H23.49v5.93h-6.2V89.67ZM45.88,106.5c-6.08.12-9.61-2.65-9.61-8.66,0-5.15,2.92-8.21,8.59-8.41,5.27-.18,9.55,2.29,9.67,8.17C54.64,103.06,51.53,106.38,45.88,106.5ZM48.17,98c0-2.63-1.24-4.77-2.77-4.77S42.64,95.33,42.64,98s1.24,4.78,2.76,4.78S48.17,100.6,48.17,98ZM112,106.5c-6.09.12-9.62-2.65-9.62-8.66,0-5.15,2.93-8.21,8.6-8.41,5.26-.18,9.55,2.29,9.67,8.17C120.73,103.06,117.61,106.38,112,106.5ZM114.25,98c0-2.63-1.24-4.77-2.76-4.77s-2.77,2.14-2.77,4.77,1.24,4.78,2.77,4.78S114.25,100.6,114.25,98ZM59.18,106.2l7-.06,2.58-10.68,2.71,10.74h6.89l3.88-16.53H76.74L74.6,100.49,72,89.67H66l-2.62,10.82L61.31,89.67h-6ZM99.57,105c-1.46,1.19-3.52,1.25-5.4,1.24H84.8V89.68l10.8,0a8.44,8.44,0,0,1,2,.16A4.07,4.07,0,0,1,100,96.07a4,4,0,0,1-2.86,1.59A4.12,4.12,0,0,1,99.57,105Zm-9-8.83,2,0a3,3,0,0,0,1-.11,1.5,1.5,0,0,0,.86-.8A1.74,1.74,0,0,0,93.66,93a3.14,3.14,0,0,0-1.22-.16l-1.86,0Zm3.15,3.25a3.29,3.29,0,0,0-1-.11l-2.11,0v3.56l2.16,0a2.85,2.85,0,0,0,1.05-.11,1.64,1.64,0,0,0,.93-.86A1.87,1.87,0,0,0,93.73,99.39Zm31.8-1.69-5.65,8.51h6.86l2.89-5.6,3,5.6h7.28l-5.69-8.51,5.25-8h-6.62l-2.53,4.93-2.51-4.93h-7.22ZM.22,101.46v4.25a26.8,26.8,0,0,0,8.94.81,7.1,7.1,0,0,0,4.52-2,5.06,5.06,0,0,0,.38-6.21,6.07,6.07,0,0,0-2.87-2,21.4,21.4,0,0,0-3.45-.83,3,3,0,0,1-.94-.29,1,1,0,0,1-.5-.79.94.94,0,0,1,.56-.8,2.44,2.44,0,0,1,1-.19,24.88,24.88,0,0,1,5.94.72v-3.9c0-.13,0-.16-.07-.2a1.88,1.88,0,0,0-.33,0l-.64-.08a35.19,35.19,0,0,0-5.13-.35c-.73,0-1.45.06-2.17.15a7.76,7.76,0,0,0-3.24,1,4.86,4.86,0,0,0-.39,7.87,6.81,6.81,0,0,0,3.22,1.27,8.64,8.64,0,0,1,2.59.58,1.63,1.63,0,0,1,.78.73.89.89,0,0,1-.14,1,1.35,1.35,0,0,1-.73.26A13.45,13.45,0,0,1,.22,101.46ZM104,31.37l-.82,9.55-.34,3.82-2.23-4.33Zm-28,31.72s-.19-1.91-2.67,1l0,3.62S76.26,65.37,76.07,63.09Zm.19-6.87s.19-2.47-2.48.58v3.43S76.45,58.7,76.26,56.22Zm11.63-18a1,1,0,0,0-.36.27,3.58,3.58,0,0,0-.28.37,10.77,10.77,0,0,0-1.62,4.75c-.09,1.1,0,2.21,0,3.32a4.28,4.28,0,0,0,.25,2,.59.59,0,0,0,.49.4A.71.71,0,0,0,86.8,49a8.07,8.07,0,0,0,2.1-4.8c0-1.3.24-2.59.22-3.89A3.79,3.79,0,0,0,89,38.66.88.88,0,0,0,87.89,38.26ZM105,20.2l-.82,9.32,0,0h0L101,32.59l-2.28,6.86L97.6,35.64l-4.15,4.12L95.7,45,91.81,56.22l3.51-3,2.28-7.25,1.48,3.39,3.66-3L102,54.89,69.4,76.43l.07-1.63c2.68-1.94,8.31-8.28,8.31-8.28a10.76,10.76,0,0,0,1.91-4.58c.76-6.1-1.91-3.43-1.91-3.43A16,16,0,0,0,80.26,53c.38-4.95-1.91-3.43-1.91-3.43l-8,7.29v.07h-.06l.63-13.65ZM93.41,35.26s-.38-6.86-6.48,0c0,0-5,6.1-5.37,12.2s.42,6.86.42,6.86,1.52,3.43,6.86-3.81A24.26,24.26,0,0,0,93.41,35.26ZM102,16,85.57,8.09l-3.4,12-5.72-.63,1.14-13,6.1.76L68.82,0,39.09,16.77,65.77,36.59l-3-5.27L70,26.68l4.19,7.63-6,4.11,3.69,2.75ZM86.58,17a3,3,0,0,1,4.65,3.83v0A7.21,7.21,0,0,1,90.31,22c-1.22,1.29-2.4,2.63-3.57,4,.37-1.25.74-2.49,1.1-3.74A3,3,0,0,1,86.58,17Zm-16.6,2A22,22,0,0,0,68.69,21a5.2,5.2,0,0,0,.13,3.43L61.2,28.59a5.85,5.85,0,0,1-1.46-4.38,10.47,10.47,0,0,1,.76-2.56,8.72,8.72,0,0,0,.69-2.59,3.06,3.06,0,0,0-.87-2.44,1.89,1.89,0,0,0-2.45-.14,2.25,2.25,0,0,0-.46,2.29A12.66,12.66,0,0,0,58.53,21l-7.62,4.19A6.13,6.13,0,0,1,48,20.81a7.82,7.82,0,0,1,2.07-6.11,17.25,17.25,0,0,1,5.39-3.85,24.49,24.49,0,0,1,6-2.22,7,7,0,0,1,3.53,0A6.85,6.85,0,0,1,68.17,11a13.88,13.88,0,0,1,1.27,1.86,7.58,7.58,0,0,1,.93,2A6.31,6.31,0,0,1,70,19.06Zm5.71,2.67,6.48.76L81,29.35l-6.1-.76ZM34.9,16l3,18s0-.07.05-.1c1.14-2.29,4.95,1.52,4.95,1.52L44.05,40s-1.53-2.66-3-2.28.38,3,.38,3S47.1,46.5,47.08,51s-4.94,0-4.94,0L40.62,46.5s2.66,3.82,3.43,2.67-.38-2.67-2.29-4.57a17,17,0,0,1-2.9-4.84l2.52,15.13,26.68,19V44.22ZM50.15,41.55l-2.21-.9,1.44,5.09-3.05-1.52L42.14,29.35l2.67,1.14,1.91,5.72L48.8,37l-1.32-5.71,3.05,1.14,4.19,16-3-1.52ZM66.92,59.08l-3.43-1.9-2.67-9.42v7.89L58.5,54.28c1.13,3.41,2.93,9.86.41,10.14-3.43.38-5.33-6.26-5.33-6.26s-1.53-5.94,0-7.08,3.81,1.52,3.81,1.52L54,39.64l2.67,1.15,2.28,8.76-.38-8,3,1.14,2.67,9.53-.38-8.77L67.3,44.6Zm-9.56-1.71c.39,1.87.27,3.48-.26,3.59s-1.27-1.32-1.65-3.2-.27-3.49.26-3.6S57,55.49,57.36,57.37Z"/></g></g></svg>